<svg width="47" height="70" viewBox="0 0 47 70" fill="none" xmlns="http://www.w3.org/2000/svg">
<path d="M35.8828 51.139C40.6653 55.458 44.3221 62.1172 46.0764 70L-1.22392e-05 70C1.75425 62.1172 5.411 55.458 10.1935 51.139L35.8828 51.139Z" fill="black"/>
<path d="M11.8135 49.7466C16.0485 45.4589 18.6671 39.5404 18.6671 33.0038C18.6671 29.3444 17.8464 25.8786 16.3808 22.7843L29.7759 22.7843C28.3103 25.8786 27.4895 29.3444 27.4895 33.0038C27.4895 39.5404 30.1081 45.4589 34.3432 49.7466L11.8135 49.7466Z" fill="black"/>
<path d="M25.4198 2.3414C25.4198 3.63452 24.3715 4.6828 23.0784 4.6828C21.7852 4.6828 20.737 3.63452 20.737 2.3414C20.737 1.04828 21.7852 3.80905e-06 23.0784 4.03515e-06C24.3715 4.26125e-06 25.4198 1.04828 25.4198 2.3414Z" fill="black"/>
<path d="M13.5835 15.5094C13.5835 17.7341 14.3496 19.7789 15.6311 21.3919L30.3081 21.3919C31.5896 19.7789 32.3557 17.7341 32.3557 15.5094C32.3557 15.5094 32.3557 10.2929 22.9696 6.07528C13.5835 10.1819 13.5835 15.4612 13.5835 15.5094Z" fill="black"/>
</svg>
