<svg width="49" height="80" viewBox="0 0 49 80" fill="none" xmlns="http://www.w3.org/2000/svg">
<path d="M38.1588 60.1438C43.2447 64.6906 47.1334 71.7013 48.999 80H0C1.86554 71.7013 5.75426 64.6906 10.8402 60.1438L38.1588 60.1438Z" fill="white"/>
<path d="M20.3709 9.05373L24.4451 4.86638L28.5193 9.16691L24.4451 13.1279L20.3709 9.05373Z" fill="white"/>
<path d="M22.6343 1.81075L24.4451 0L26.369 1.81075L24.4451 3.73467L22.6343 1.81075Z" fill="white"/>
<path d="M28.5193 9.16691L33.1593 4.86638V13.1279L28.5193 9.16691Z" fill="white"/>
<path d="M20.3709 9.05373L15.7309 13.1279L15.7309 4.86638L20.3709 9.05373Z" fill="white"/>
<path d="M15.7309 13.1279L33.1593 13.1279V19.9678H15.7309V13.1279Z" fill="white"/>
<path d="M11.6567 58.8989C16.4796 54.0396 19.4617 47.3322 19.4617 39.9243C19.4617 35.777 18.5271 31.8493 16.858 28.3425H32.1124C30.4433 31.8493 29.5087 35.777 29.5087 39.9243C29.5087 47.3322 32.4908 54.0396 37.3137 58.8989L11.6567 58.8989Z" fill="white"/>
<path d="M16.2078 27.0977H32.7138C33.8325 24.9498 35.2136 22.9725 36.8122 21.2127L12.1094 21.2127C13.708 22.9725 15.0891 24.9498 16.2078 27.0977Z" fill="white"/>
</svg>
