<svg width="40" height="70" viewBox="0 0 40 70" fill="none" xmlns="http://www.w3.org/2000/svg">
<path d="M30.8953 51.2651L3.59248 51.2651L19.4106 20.2172L-8.42031e-05 20.2172L-8.56376e-05 12.0133L19.9606 2.53546C26.3539 4.975 30.8953 11.1647 30.8953 18.415L30.8953 51.2651Z" fill="black"/>
<path d="M32.4448 51.2651L32.4448 18.415C32.4448 11.0104 28.104 4.61962 21.8283 1.64863L25.3003 2.42598e-06C31.3695 3.04617 35.5349 9.3267 35.5349 16.5801L35.5349 51.2651L32.4448 51.2651Z" fill="black"/>
<path d="M39.1753 60.4213L0.578364 60.4213C4.59875 58.7788 8.13521 56.1462 10.9057 52.8146L28.8479 52.8146C31.6185 56.1462 35.1549 58.7788 39.1753 60.4213Z" fill="black"/>
<path d="M39.1752 61.9708L0.57851 61.9708L0.578511 70L39.1752 70L39.1752 61.9708Z" fill="black"/>
</svg>
