<svg width="40" height="65" viewBox="0 0 40 65" fill="none" xmlns="http://www.w3.org/2000/svg">
<path d="M27.5711 8.33333C27.5711 12.9357 23.8401 16.6667 19.2378 16.6667C14.6354 16.6667 10.9044 12.9357 10.9044 8.33333C10.9044 3.73096 14.6354 0 19.2378 0C23.8401 0 27.5711 3.73096 27.5711 8.33333Z" fill="white"/>
<path d="M27.8397 52.5926H10.8445C8.48153 57.3271 4.74471 61.5548 0 65H39.0142C34.149 61.5779 30.2985 57.3474 27.8397 52.5926Z" fill="white"/>
<path d="M30.0363 18.7037L8.62406 18.7037C12.2004 24.1875 14.2376 30.5019 14.2376 37.2222C14.2376 41.9125 13.2453 46.4051 11.43 50.5556H27.2304C25.4151 46.4051 24.4228 41.9125 24.4228 37.2222C24.4228 30.5019 26.46 24.1875 30.0363 18.7037Z" fill="white"/>
</svg>
