<svg width="46" height="80" viewBox="0 0 46 80" fill="none" xmlns="http://www.w3.org/2000/svg">
<path d="M25.5319 3.01146C25.5319 4.67464 24.1836 6.02291 22.5205 6.02291C20.8573 6.02291 19.509 4.67464 19.509 3.01146C19.509 1.34828 20.8573 0 22.5205 0C24.1836 0 25.5319 1.34828 25.5319 3.01146Z" fill="white"/>
<path d="M13.2242 12.4386L31.8479 12.4386C29.5764 9.38825 26.2466 7.46318 22.536 7.46318C18.8255 7.46318 15.4957 9.38825 13.2242 12.4386Z" fill="white"/>
<path d="M36.6292 13.8789L8.51062 13.8789C10.4828 15.931 12.2102 18.2157 13.6465 20.6874L31.4934 20.6874C32.9297 18.2157 34.6571 15.931 36.6292 13.8789Z" fill="white"/>
<path d="M30.6576 22.1277L14.3736 22.1277C16.9221 27.0626 18.3612 32.6633 18.3612 38.6001C18.3612 46.7196 15.6693 54.2105 11.1293 60.2291L33.9019 60.2291C29.3618 54.2105 26.67 46.7196 26.67 38.6001C26.67 32.6633 28.1091 27.0626 30.6576 22.1277Z" fill="white"/>
<path d="M35.1623 61.6694C39.8487 65.8669 43.432 72.3389 45.151 80H0C1.719 72.3389 5.30229 65.8669 9.98873 61.6694L35.1623 61.6694Z" fill="white"/>
</svg>
