<svg width="45" height="70" viewBox="0 0 45 70" fill="none" xmlns="http://www.w3.org/2000/svg">
<path d="M40.1104 7.01313e-06L4.58729 8.02067e-07C7.07875 3.23364 9.26102 6.83401 11.0756 10.7288L33.6221 10.7288C35.4367 6.83402 37.6189 3.23364 40.1104 7.01313e-06Z" fill="black"/>
<path d="M-9.77332e-06 55.8969C8.03096 49.2458 13.3205 37.9015 13.3205 25.0248C13.3205 20.751 12.7378 16.6459 11.6656 12.8252L33.1343 12.8252C32.062 16.6459 31.4793 20.751 31.4793 25.0248C31.4793 37.9015 36.7689 49.2458 44.7998 55.8969L-9.77332e-06 55.8969Z" fill="black"/>
<path d="M0.000193099 57.9933L44.8 57.9933L44.8 70L0.000191 70L0.000193099 57.9933Z" fill="black"/>
</svg>
